# File created by Blade
# Date/Time:  Tue Jan 27 19:18:41 2015
# Frame Rate: 120.000 fps
#------------------------------------------------------
:FULLY-SPECIFIED
:DEGREES
4023
root 2.188554 32.330649 0.914128 -0.858930 4.601138 1.609623
Spine 3.644153 -0.177232 -2.032267
Head 4.555894 -7.873745 4.144908
LeftShoulder -15.580638 -0.683022 40.435457
LeftArm 10.173309 -26.164870 -47.670393
LeftForeArm 22.582974 -0.000000 23.938945
LeftHand 9.714633 -0.000000 5.575520
LeftHandThumb1 -26.253704 0.000000 33.147579
RightShoulder -23.698164 -18.644270 -39.779778
RightArm 10.913187 27.964046 42.484176
RightForeArm -10.307415 0.000000 26.226757
RightHand 19.053909 -0.000000 -4.847859
RightHandThumb1 -24.326973 -0.000000 -32.862282
LeftUpLeg 7.601021 5.712345 2.329293
LeftLeg -0.318970 -0.000000 0.000000
LeftFoot -12.278088 7.199509 -24.084052
LeftToeBase 17.593703 -0.000000 -0.000000
RightUpLeg 6.729801 -7.428955 3.910040
RightLeg 0.481781 -0.000000 -0.000000
RightFoot -13.918669 -17.745594 12.458224
RightToeBase 11.352331 -0.000000 -0.000000
4024
root 2.211436 32.331002 0.912396 -0.904185 4.788165 1.613439
Spine 3.672303 -0.168216 -2.043993
Head 4.513591 -8.022767 4.141264
LeftShoulder -15.486546 -1.068965 40.742927
LeftArm 10.667190 -26.005853 -47.048254
LeftForeArm 22.371762 0.000000 21.593406
LeftHand 9.916216 -0.000000 5.609049
LeftHandThumb1 -26.253704 0.000000 33.147579
RightShoulder -23.688668 -18.687698 -39.840854
RightArm 11.231641 27.678220 42.458853
RightForeArm -11.052867 -0.000000 24.507812
RightHand 19.001919 -0.000000 -5.043688
RightHandThumb1 -24.326973 -0.000000 -32.862282
LeftUpLeg 7.638788 5.565847 2.293079
LeftLeg -0.357652 -0.000000 0.000000
LeftFoot -12.203890 7.125577 -23.950098
LeftToeBase 17.482164 -0.000000 -0.000000
RightUpLeg 6.797515 -7.521739 3.877787
RightLeg 0.462737 -0.000000 -0.000000
RightFoot -13.951384 -17.896807 12.461758
RightToeBase 11.319638 -0.000000 -0.000000
4025
root 2.236008 32.330871 0.909214 -0.941775 4.982712 1.626887
Spine 3.704161 -0.191339 -2.073736
Head 4.434286 -8.138092 4.138059
LeftShoulder -15.423010 -1.389837 41.020508
LeftArm 11.217950 -25.765174 -46.426572
LeftForeArm 22.047821 -0.000000 19.239612
LeftHand 9.942584 -0.000000 5.629310
LeftHandThumb1 -26.253704 0.000000 33.147579
RightShoulder -23.654456 -18.661883 -39.926873
RightArm 11.486647 27.328354 42.405929
RightForeArm -11.672985 0.000000 22.852069
RightHand 19.089190 -0.000000 -5.255314
RightHandThumb1 -24.326973 -0.000000 -32.862282
LeftUpLeg 7.664714 5.411548 2.238778
LeftLeg -0.415069 -0.000000 0.000000
LeftFoot -12.201672 7.105914 -23.974673
LeftToeBase 17.723061 -0.000000 -0.000000
RightUpLeg 6.846240 -7.639770 3.821609
RightLeg 0.473953 -0.000000 -0.000000
RightFoot -14.022421 -17.958808 12.540699
RightToeBase 11.299965 -0.000000 -0.000000
4026
root 2.258881 32.331228 0.904314 -0.964044 5.184281 1.627472
Spine 3.715654 -0.199507 -2.083238
Head 4.355455 -8.252282 4.126342
LeftShoulder -15.319040 -1.774679 41.288911
LeftArm 11.730777 -25.573198 -45.836882
LeftForeArm 21.842830 0.000000 16.865372
LeftHand 10.167532 -0.000000 5.539981
LeftHandThumb1 -26.253704 0.000000 33.147579
RightShoulder -23.638056 -18.680456 -39.963583
RightArm 11.738932 27.028285 42.328754
RightForeArm -12.155123 0.000000 21.235330
RightHand 19.267402 -0.000000 -5.361972
RightHandThumb1 -24.326973 -0.000000 -32.862282
LeftUpLeg 7.657319 5.246370 2.197598
LeftLeg -0.438907 -0.000000 0.000000
LeftFoot -12.206432 7.073569 -23.966524
LeftToeBase 17.880996 -0.000000 -0.000000
RightUpLeg 6.886438 -7.761725 3.787373
RightLeg 0.460313 -0.000000 -0.000000
RightFoot -14.046552 -18.061781 12.549570
RightToeBase 11.242926 -0.000000 -0.000000
4027
root 2.284345 32.331731 0.900694 -0.989177 5.373492 1.630699
Spine 3.718729 -0.198619 -2.084758
Head 4.327056 -8.401926 4.091089
LeftShoulder -15.209952 -2.236503 41.585004
LeftArm 12.140419 -25.091049 -45.217953
LeftForeArm 21.601310 -0.000000 14.505541
LeftHand 10.350951 -0.000000 5.549859
LeftHandThumb1 -26.253704 0.000000 33.147579
RightShoulder -23.598218 -18.688406 -40.039814
RightArm 11.950157 26.663510 42.250622
RightForeArm -12.619307 -0.000000 19.605337
RightHand 19.408761 -0.000000 -5.509101
RightHandThumb1 -24.326973 -0.000000 -32.862282
LeftUpLeg 7.668202 5.078485 2.147556
LeftLeg -0.481703 -0.000000 0.000000
LeftFoot -12.182502 7.065073 -23.903972
LeftToeBase 17.889435 -0.000000 -0.000000
RightUpLeg 6.930854 -7.838829 3.738356
RightLeg 0.459075 -0.000000 -0.000000
RightFoot -14.258771 -18.074013 12.974724
RightToeBase 11.241391 -0.000000 -0.000000
4028
root 2.311675 32.332413 0.896658 -1.011558 5.560322 1.643609
Spine 3.720893 -0.203521 -2.092959
Head 4.289921 -8.589920 4.069582
LeftShoulder -15.097596 -2.623297 41.870394
LeftArm 12.584819 -24.589658 -44.670499
LeftForeArm 21.367511 -0.000000 12.205931
LeftHand 10.441133 -0.000000 5.521484
LeftHandThumb1 -26.253704 0.000000 33.147579
RightShoulder -23.565745 -18.744497 -40.111227
RightArm 12.178662 26.324730 42.223663
RightForeArm -12.995177 -0.000000 18.029941
RightHand 19.541781 -0.000000 -5.593014
RightHandThumb1 -24.326973 -0.000000 -32.862282
LeftUpLeg 7.675869 4.924863 2.085554
LeftLeg -0.523452 -0.000000 0.000000
LeftFoot -12.135197 7.054630 -23.823506
LeftToeBase 17.794610 -0.000000 -0.000000
RightUpLeg 6.963738 -7.971529 3.685609
RightLeg 0.454357 -0.000000 -0.000000
RightFoot -14.143357 -18.163993 12.808047
RightToeBase 11.020618 -0.000000 -0.000000
